<svg xmlns="http://www.w3.org/2000/svg" viewBox="0 0 360 900" width="100%" height="100%"><g transform="translate(0,180)">

  <!-- Background -->
  <rect width="360" height="900" fill="none"/>
  
  <!-- Ground Line -->
  <line x1="20" y1="420" x2="340" y2="420" stroke="#D6BEB4" stroke-width="2" stroke-linecap="round"/>

  <!-- Left Dome -->
  <g>
    <path d="M 45,420 L 45,350 A 35,35 0 0,1 115,350 L 115,420" fill="none" stroke="#D6BEB4" stroke-width="2" stroke-linejoin="round"/>
    <path d="M 72,315 Q 80,305 80,297 Q 80,305 88,315" fill="none" stroke="#D6BEB4" stroke-width="2" stroke-linejoin="round"/>
  </g>

  <!-- Middle Dome (with outer frame) -->
  <g>
    <rect x="125" y="310" width="110" height="110" fill="none" stroke="#D6BEB4" stroke-width="2" stroke-linejoin="round"/>
    <path d="M 145,420 L 145,350 A 35,35 0 0,1 215,350 L 215,420" fill="none" stroke="#D6BEB4" stroke-width="2" stroke-linejoin="round"/>
    <path d="M 172,315 Q 180,305 180,297 Q 180,305 188,315" fill="none" stroke="#D6BEB4" stroke-width="2" stroke-linejoin="round"/>
  </g>

  <!-- Right Dome -->
  <g>
    <path d="M 245,420 L 245,350 A 35,35 0 0,1 315,350 L 315,420" fill="none" stroke="#D6BEB4" stroke-width="2" stroke-linejoin="round"/>
    <path d="M 272,315 Q 280,305 280,297 Q 280,305 288,315" fill="none" stroke="#D6BEB4" stroke-width="2" stroke-linejoin="round"/>
  </g>

</g></svg>